<?xml version="1.0" encoding="UTF-8"?>
<!DOCTYPE svg PUBLIC "-//W3C//DTD SVG 1.1//EN" "http://www.w3.org/Graphics/SVG/1.1/DTD/svg11.dtd">
<svg version="1.2" width="170mm" height="118mm" viewBox="0 0 17000 11800" preserveAspectRatio="xMidYMid" fill-rule="evenodd" stroke-width="28.222" stroke-linejoin="round" xmlns="http://www.w3.org/2000/svg" xmlns:ooo="http://xml.openoffice.org/svg/export" xmlns:xlink="http://www.w3.org/1999/xlink" xmlns:presentation="http://sun.com/xmlns/staroffice/presentation" xmlns:smil="http://www.w3.org/2001/SMIL20/" xmlns:anim="urn:oasis:names:tc:opendocument:xmlns:animation:1.0" xml:space="preserve">
 <defs class="ClipPathGroup">
  <clipPath id="presentation_clip_path" clipPathUnits="userSpaceOnUse">
   <rect x="0" y="0" width="17000" height="11800"/>
  </clipPath>
 </defs>
 <defs class="TextShapeIndex">
  <g ooo:slide="id1" ooo:id-list="id3 id4 id5 id6 id7 id8 id9 id10 id11 id12 id13 id14 id15 id16 id17 id18 id19 id20 id21"/>
 </defs>
 <defs class="EmbeddedBulletChars">
  <g id="bullet-char-template(57356)" transform="scale(0.00048828125,-0.00048828125)">
   <path d="M 580,1141 L 1163,571 580,0 -4,571 580,1141 Z"/>
  </g>
  <g id="bullet-char-template(57354)" transform="scale(0.00048828125,-0.00048828125)">
   <path d="M 8,1128 L 1137,1128 1137,0 8,0 8,1128 Z"/>
  </g>
  <g id="bullet-char-template(10146)" transform="scale(0.00048828125,-0.00048828125)">
   <path d="M 174,0 L 602,739 174,1481 1456,739 174,0 Z M 1358,739 L 309,1346 659,739 1358,739 Z"/>
  </g>
  <g id="bullet-char-template(10132)" transform="scale(0.00048828125,-0.00048828125)">
   <path d="M 2015,739 L 1276,0 717,0 1260,543 174,543 174,936 1260,936 717,1481 1274,1481 2015,739 Z"/>
  </g>
  <g id="bullet-char-template(10007)" transform="scale(0.00048828125,-0.00048828125)">
   <path d="M 0,-2 C -7,14 -16,27 -25,37 L 356,567 C 262,823 215,952 215,954 215,979 228,992 255,992 264,992 276,990 289,987 310,991 331,999 354,1012 L 381,999 492,748 772,1049 836,1024 860,1049 C 881,1039 901,1025 922,1006 886,937 835,863 770,784 769,783 710,716 594,584 L 774,223 C 774,196 753,168 711,139 L 727,119 C 717,90 699,76 672,76 641,76 570,178 457,381 L 164,-76 C 142,-110 111,-127 72,-127 30,-127 9,-110 8,-76 1,-67 -2,-52 -2,-32 -2,-23 -1,-13 0,-2 Z"/>
  </g>
  <g id="bullet-char-template(10004)" transform="scale(0.00048828125,-0.00048828125)">
   <path d="M 285,-33 C 182,-33 111,30 74,156 52,228 41,333 41,471 41,549 55,616 82,672 116,743 169,778 240,778 293,778 328,747 346,684 L 369,508 C 377,444 397,411 428,410 L 1163,1116 C 1174,1127 1196,1133 1229,1133 1271,1133 1292,1118 1292,1087 L 1292,965 C 1292,929 1282,901 1262,881 L 442,47 C 390,-6 338,-33 285,-33 Z"/>
  </g>
  <g id="bullet-char-template(9679)" transform="scale(0.00048828125,-0.00048828125)">
   <path d="M 813,0 C 632,0 489,54 383,161 276,268 223,411 223,592 223,773 276,916 383,1023 489,1130 632,1184 813,1184 992,1184 1136,1130 1245,1023 1353,916 1407,772 1407,592 1407,412 1353,268 1245,161 1136,54 992,0 813,0 Z"/>
  </g>
  <g id="bullet-char-template(8226)" transform="scale(0.00048828125,-0.00048828125)">
   <path d="M 346,457 C 273,457 209,483 155,535 101,586 74,649 74,723 74,796 101,859 155,911 209,963 273,989 346,989 419,989 480,963 531,910 582,859 608,796 608,723 608,648 583,586 532,535 482,483 420,457 346,457 Z"/>
  </g>
  <g id="bullet-char-template(8211)" transform="scale(0.00048828125,-0.00048828125)">
   <path d="M -4,459 L 1135,459 1135,606 -4,606 -4,459 Z"/>
  </g>
 </defs>
 <defs class="TextEmbeddedBitmaps"/>
 <g>
  <g id="id2" class="Master_Slide">
   <g id="bg-id2" class="Background"/>
   <g id="bo-id2" class="BackgroundObjects"/>
  </g>
 </g>
 <g class="SlideGroup">
  <g>
   <g id="id1" class="Slide" clip-path="url(#presentation_clip_path)">
    <g class="Page">
     <g class="com.sun.star.drawing.ClosedBezierShape">
      <g id="id3">
       <rect class="BoundingBox" stroke="none" fill="none" x="3627" y="2397" width="8309" height="5709"/>
       <path fill="rgb(203,113,134)" stroke="none" d="M 3627,2397 L 5583,2397 C 6164,2397 6580,2449 6831,2555 7190,2706 7441,2959 7587,3312 7668,3507 7708,3713 7708,3931 7708,4328 7595,4652 7370,4906 7266,5023 7153,5113 7029,5175 6905,5238 6731,5294 6508,5344 6687,5384 6824,5427 6919,5477 7016,5525 7103,5595 7182,5688 7360,5896 7450,6198 7453,6594 L 7453,8104 5889,8104 5889,6763 C 5889,6458 5823,6248 5690,6134 5557,6020 5313,5963 4956,5963 L 3627,5963 3627,4592 5474,4592 C 5738,4592 5908,4545 5986,4449 6050,4372 6082,4281 6082,4178 6082,4038 6037,3936 5950,3869 5862,3800 5723,3768 5533,3768 L 3627,3768 3627,2397 Z M 3627,2397 L 3627,2397 Z M 11935,2397 L 11935,3768 11359,3768 C 11079,3768 10847,3800 10660,3869 10474,3936 10306,4044 10159,4195 9878,4482 9736,4836 9736,5257 9736,5652 9872,5992 10142,6277 10302,6444 10477,6561 10671,6629 10865,6699 11116,6733 11426,6733 L 11935,6733 11935,8104 11166,8104 C 10474,8104 9908,7972 9463,7708 8907,7369 8513,6886 8285,6251 8168,5932 8109,5604 8109,5270 8109,4832 8206,4406 8402,3994 8550,3678 8744,3402 8987,3166 9340,2823 9761,2599 10250,2492 10537,2428 10862,2397 11225,2397 L 11935,2397 Z"/>
      </g>
     </g>
     <g class="com.sun.star.drawing.PolyPolygonShape">
      <g id="id4">
       <rect class="BoundingBox" stroke="none" fill="none" x="8651" y="5294" width="2554" height="1590"/>
       <path fill="rgb(0,86,139)" stroke="none" d="M 11204,5294 L 8651,6750 8738,6883 11204,5294 Z"/>
      </g>
     </g>
     <g class="com.sun.star.drawing.ClosedBezierShape">
      <g id="id5">
       <rect class="BoundingBox" stroke="none" fill="none" x="8396" y="6522" width="563" height="563"/>
       <path fill="rgb(0,86,139)" stroke="none" d="M 8677,6522 C 8729,6522 8773,6534 8817,6560 8862,6586 8894,6618 8920,6662 8946,6707 8958,6751 8958,6803 8958,6855 8946,6899 8920,6944 8894,6988 8862,7020 8818,7046 8773,7072 8729,7084 8677,7084 8625,7084 8581,7072 8537,7046 8492,7020 8460,6988 8434,6944 8408,6899 8396,6855 8396,6803 8396,6751 8408,6707 8434,6663 8460,6618 8492,6586 8536,6560 8581,6534 8625,6522 8677,6522 Z"/>
      </g>
     </g>
     <g class="com.sun.star.drawing.PolyPolygonShape">
      <g id="id6">
       <rect class="BoundingBox" stroke="none" fill="none" x="11202" y="1411" width="1980" height="3810"/>
       <path fill="rgb(0,86,139)" stroke="none" d="M 11202,5220 L 12989,1411 13181,1520 11202,5220 Z"/>
      </g>
     </g>
     <g class="com.sun.star.drawing.ClosedBezierShape">
      <g id="id7">
       <rect class="BoundingBox" stroke="none" fill="none" x="3623" y="2393" width="8317" height="5717"/>
       <path fill="rgb(217,218,219)" stroke="none" d="M 3627,2397 L 5583,2397 C 6164,2397 6580,2449 6831,2555 7190,2706 7441,2959 7587,3312 7668,3507 7708,3713 7708,3931 7708,4328 7595,4652 7370,4906 7266,5023 7153,5113 7029,5175 6905,5238 6731,5294 6508,5344 6687,5384 6824,5427 6919,5477 7016,5525 7103,5595 7182,5688 7360,5896 7450,6198 7453,6594 L 7453,8104 5889,8104 5889,6763 C 5889,6458 5823,6248 5690,6134 5557,6020 5313,5963 4956,5963 L 3627,5963 3627,4592 5474,4592 C 5738,4592 5908,4545 5986,4449 6050,4372 6082,4281 6082,4178 6082,4038 6037,3936 5950,3869 5862,3800 5723,3768 5533,3768 L 3627,3768 3627,2397 Z M 3627,2397 L 3627,2397 Z M 11935,2397 L 11935,3768 11359,3768 C 11079,3768 10847,3800 10660,3869 10474,3936 10306,4044 10159,4195 9878,4482 9736,4836 9736,5257 9736,5652 9872,5992 10142,6277 10302,6444 10477,6561 10671,6629 10865,6699 11116,6733 11426,6733 L 11935,6733 11935,8104 11166,8104 C 10474,8104 9908,7972 9463,7708 8907,7369 8513,6886 8285,6251 8168,5932 8109,5604 8109,5270 8109,4832 8206,4406 8402,3994 8550,3678 8744,3402 8987,3166 9340,2823 9761,2599 10250,2492 10537,2428 10862,2397 11225,2397 L 11935,2397 Z"/>
       <path fill="none" stroke="rgb(217,218,219)" stroke-width="8" stroke-linejoin="miter" d="M 3627,2397 L 5583,2397 C 6164,2397 6580,2449 6831,2555 7190,2706 7441,2959 7587,3312 7668,3507 7708,3713 7708,3931 7708,4328 7595,4652 7370,4906 7266,5023 7153,5113 7029,5175 6905,5238 6731,5294 6508,5344 6687,5384 6824,5427 6919,5477 7016,5525 7103,5595 7182,5688 7360,5896 7450,6198 7453,6594 L 7453,8104 5889,8104 5889,6763 C 5889,6458 5823,6248 5690,6134 5557,6020 5313,5963 4956,5963 L 3627,5963 3627,4592 5474,4592 C 5738,4592 5908,4545 5986,4449 6050,4372 6082,4281 6082,4178 6082,4038 6037,3936 5950,3869 5862,3800 5723,3768 5533,3768 L 3627,3768 3627,2397 Z"/>
       <path fill="none" stroke="rgb(217,218,219)" stroke-width="8" stroke-linejoin="miter" d="M 11935,2397 L 11935,3768 11359,3768 C 11079,3768 10847,3800 10660,3869 10474,3936 10306,4044 10159,4195 9878,4482 9736,4836 9736,5257 9736,5652 9872,5992 10142,6277 10302,6444 10477,6561 10671,6629 10865,6699 11116,6733 11426,6733 L 11935,6733 11935,8104 11166,8104 C 10474,8104 9908,7972 9463,7708 8907,7369 8513,6886 8285,6251 8168,5932 8109,5604 8109,5270 8109,4832 8206,4406 8402,3994 8550,3678 8744,3402 8987,3166 9340,2823 9761,2599 10250,2492 10537,2428 10862,2397 11225,2397 L 11935,2397 Z"/>
      </g>
     </g>
     <g class="com.sun.star.drawing.PolyPolygonShape">
      <g id="id8">
       <rect class="BoundingBox" stroke="none" fill="none" x="1162" y="2397" width="3513" height="5709"/>
       <path fill="rgb(0,86,139)" stroke="none" d="M 2730,2397 L 2730,6733 4674,6733 4674,8104 1162,8104 1162,2397 2730,2397 Z"/>
      </g>
     </g>
     <g class="com.sun.star.drawing.PolyPolygonShape">
      <g id="id9">
       <rect class="BoundingBox" stroke="none" fill="none" x="11202" y="5219" width="4098" height="333"/>
       <path fill="rgb(0,86,139)" stroke="none" d="M 11202,5219 L 15299,5348 15285,5551 11202,5219 Z"/>
      </g>
     </g>
     <g class="com.sun.star.drawing.PolyPolygonShape">
      <g id="id10">
       <rect class="BoundingBox" stroke="none" fill="none" x="5134" y="2310" width="6070" height="2911"/>
       <path fill="rgb(0,86,139)" stroke="none" d="M 11203,5220 L 5278,2310 5135,2586 11203,5220 Z"/>
      </g>
     </g>
     <g class="com.sun.star.drawing.PolyPolygonShape">
      <g id="id11">
       <rect class="BoundingBox" stroke="none" fill="none" x="10896" y="5218" width="389" height="4786"/>
       <path fill="rgb(0,86,139)" stroke="none" d="M 11202,5219 L 10896,9988 11284,10003 11202,5219 Z"/>
      </g>
     </g>
     <g class="com.sun.star.drawing.ClosedBezierShape">
      <g id="id12">
       <rect class="BoundingBox" stroke="none" fill="none" x="10186" y="4203" width="2033" height="2033"/>
       <path fill="rgb(0,86,139)" stroke="none" d="M 11202,4203 C 11389,4203 11548,4246 11710,4339 11872,4433 11988,4549 12082,4711 12175,4873 12218,5032 12218,5219 12218,5406 12175,5565 12082,5727 11988,5889 11872,6005 11710,6099 11548,6192 11389,6235 11202,6235 11015,6235 10856,6192 10694,6099 10532,6005 10416,5889 10322,5727 10229,5565 10186,5406 10186,5219 10186,5032 10229,4873 10322,4711 10416,4549 10532,4433 10694,4339 10856,4246 11015,4203 11202,4203 Z"/>
      </g>
     </g>
     <g class="com.sun.star.drawing.ClosedBezierShape">
      <g id="id13">
       <rect class="BoundingBox" stroke="none" fill="none" x="12584" y="1078" width="915" height="861"/>
       <path fill="rgb(0,86,139)" stroke="none" d="M 13040,1082 L 13041,1082 C 13124,1082 13195,1100 13268,1139 13340,1178 13392,1227 13433,1295 13475,1363 13494,1430 13494,1508 13494,1586 13475,1653 13433,1721 13392,1789 13340,1838 13268,1877 13195,1916 13124,1934 13041,1934 12958,1934 12887,1916 12815,1877 12742,1838 12690,1789 12649,1721 12607,1653 12588,1586 12588,1508 12588,1430 12607,1363 12649,1295 12690,1227 12742,1178 12815,1139 12886,1100 12957,1082 13040,1082 Z"/>
       <path fill="none" stroke="rgb(0,86,139)" stroke-width="8" stroke-linejoin="miter" d="M 13040,1082 L 13041,1082 C 13124,1082 13195,1100 13268,1139 13340,1178 13392,1227 13433,1295 13475,1363 13494,1430 13494,1508 13494,1586 13475,1653 13433,1721 13392,1789 13340,1838 13268,1877 13195,1916 13124,1934 13041,1934 12958,1934 12887,1916 12815,1877 12742,1838 12690,1789 12649,1721 12607,1653 12588,1586 12588,1508 12588,1430 12607,1363 12649,1295 12690,1227 12742,1178 12815,1139 12886,1100 12957,1082 13040,1082 Z"/>
      </g>
     </g>
     <g class="com.sun.star.drawing.ClosedBezierShape">
      <g id="id14">
       <rect class="BoundingBox" stroke="none" fill="none" x="10336" y="9211" width="1471" height="1470"/>
       <path fill="rgb(0,86,139)" stroke="none" d="M 11070,9215 C 11071,9215 11071,9215 11072,9215 11206,9215 11320,9246 11437,9313 11553,9380 11637,9464 11704,9580 11771,9697 11802,9811 11802,9945 11802,10080 11771,10194 11704,10311 11637,10427 11553,10511 11437,10578 11320,10645 11206,10676 11072,10676 10937,10676 10823,10645 10706,10578 10590,10511 10506,10427 10439,10311 10372,10194 10341,10080 10341,9945 10341,9811 10372,9697 10439,9580 10506,9464 10590,9380 10706,9313 10822,9246 10936,9215 11070,9215 Z"/>
       <path fill="none" stroke="rgb(0,86,139)" stroke-width="8" stroke-linejoin="miter" d="M 11070,9215 C 11071,9215 11071,9215 11072,9215 11206,9215 11320,9246 11437,9313 11553,9380 11637,9464 11704,9580 11771,9697 11802,9811 11802,9945 11802,10080 11771,10194 11704,10311 11637,10427 11553,10511 11437,10578 11320,10645 11206,10676 11072,10676 10937,10676 10823,10645 10706,10578 10590,10511 10506,10427 10439,10311 10372,10194 10341,10080 10341,9945 10341,9811 10372,9697 10439,9580 10506,9464 10590,9380 10706,9313 10822,9246 10936,9215 11070,9215 Z"/>
      </g>
     </g>
     <g class="com.sun.star.drawing.ClosedBezierShape">
      <g id="id15">
       <rect class="BoundingBox" stroke="none" fill="none" x="14751" y="4899" width="1080" height="1081"/>
       <path fill="rgb(0,86,139)" stroke="none" d="M 15291,4903 L 15290,4903 C 15389,4903 15473,4925 15558,4975 15644,5024 15705,5085 15754,5171 15804,5256 15826,5340 15826,5438 L 15826,5439 C 15826,5537 15804,5621 15754,5706 15705,5792 15644,5853 15558,5902 15473,5952 15389,5974 15291,5974 15192,5974 15108,5952 15023,5902 14937,5853 14876,5792 14827,5706 14777,5621 14755,5537 14755,5439 14755,5340 14777,5256 14827,5171 14876,5085 14937,5024 15023,4975 15108,4925 15192,4903 15290,4903 L 15291,4903 Z"/>
       <path fill="none" stroke="rgb(0,86,139)" stroke-width="8" stroke-linejoin="miter" d="M 15291,4903 L 15290,4903 C 15389,4903 15473,4925 15558,4975 15644,5024 15705,5085 15754,5171 15804,5256 15826,5340 15826,5438 L 15826,5439 C 15826,5537 15804,5621 15754,5706 15705,5792 15644,5853 15558,5902 15473,5952 15389,5974 15291,5974 15192,5974 15108,5952 15023,5902 14937,5853 14876,5792 14827,5706 14777,5621 14755,5537 14755,5439 14755,5340 14777,5256 14827,5171 14876,5085 14937,5024 15023,4975 15108,4925 15192,4903 15290,4903 L 15291,4903 Z"/>
      </g>
     </g>
     <g class="com.sun.star.drawing.ClosedBezierShape">
      <g id="id16">
       <rect class="BoundingBox" stroke="none" fill="none" x="4667" y="1867" width="1107" height="1107"/>
       <path fill="rgb(0,86,139)" stroke="none" d="M 5219,1871 L 5220,1871 C 5321,1871 5407,1894 5495,1945 5582,1995 5645,2058 5695,2145 5746,2233 5769,2319 5769,2420 5769,2521 5746,2607 5695,2694 5645,2782 5582,2845 5495,2895 5407,2946 5321,2969 5220,2969 5119,2969 5033,2946 4946,2895 4858,2845 4795,2782 4745,2694 4694,2607 4671,2521 4671,2420 4671,2319 4694,2233 4745,2145 4795,2058 4858,1995 4946,1945 5033,1894 5118,1871 5219,1871 Z"/>
       <path fill="none" stroke="rgb(0,86,139)" stroke-width="8" stroke-linejoin="miter" d="M 5219,1871 L 5220,1871 C 5321,1871 5407,1894 5495,1945 5582,1995 5645,2058 5695,2145 5746,2233 5769,2319 5769,2420 5769,2521 5746,2607 5695,2694 5645,2782 5582,2845 5495,2895 5407,2946 5321,2969 5220,2969 5119,2969 5033,2946 4946,2895 4858,2845 4795,2782 4745,2694 4694,2607 4671,2521 4671,2420 4671,2319 4694,2233 4745,2145 4795,2058 4858,1995 4946,1945 5033,1894 5118,1871 5219,1871 Z"/>
      </g>
     </g>
     <g class="com.sun.star.drawing.ClosedBezierShape">
      <g id="id17">
       <rect class="BoundingBox" stroke="none" fill="none" x="11032" y="5020" width="1052" height="1060"/>
       <path fill="rgb(255,255,255)" stroke="none" d="M 11966,5136 C 12025,5195 12058,5262 12074,5349 12091,5439 12083,5524 12049,5621 12016,5717 11967,5796 11892,5873 11891,5875 11889,5876 11888,5878 11814,5952 11739,6003 11645,6039 11550,6075 11466,6086 11375,6073 11284,6060 11215,6027 11153,5967 11092,5908 11056,5840 11040,5749 11024,5659 11032,5574 11065,5478 11099,5382 11148,5303 11222,5226 11296,5149 11373,5097 11469,5060 11564,5023 11649,5012 11739,5025 11830,5039 11899,5072 11961,5131 11963,5133 11964,5134 11966,5136 Z"/>
      </g>
     </g>
     <g class="com.sun.star.drawing.ClosedBezierShape">
      <g id="id18">
       <rect class="BoundingBox" stroke="none" fill="none" x="4954" y="1911" width="542" height="255"/>
       <path fill="rgb(255,255,255)" stroke="none" d="M 5223,1911 C 5224,1911 5224,1911 5225,1911 5274,1911 5317,1916 5360,1928 5403,1940 5434,1954 5459,1974 5484,1995 5495,2015 5495,2038 5495,2061 5484,2081 5459,2101 5434,2122 5403,2136 5360,2148 5317,2160 5274,2165 5225,2165 5175,2165 5132,2160 5089,2148 5046,2136 5015,2122 4990,2101 4965,2081 4954,2061 4954,2038 4954,2015 4965,1995 4990,1974 5015,1954 5046,1940 5089,1928 5132,1916 5174,1911 5223,1911 Z"/>
      </g>
     </g>
     <g class="com.sun.star.drawing.ClosedBezierShape">
      <g id="id19">
       <rect class="BoundingBox" stroke="none" fill="none" x="12935" y="1108" width="403" height="223"/>
       <path fill="rgb(255,255,255)" stroke="none" d="M 13162,1126 L 13163,1127 C 13200,1138 13230,1151 13259,1170 13288,1188 13307,1206 13321,1226 13335,1246 13339,1263 13334,1280 13329,1297 13316,1309 13293,1319 13270,1328 13244,1331 13210,1330 13176,1329 13144,1323 13107,1312 13071,1301 13041,1287 13012,1269 12983,1251 12963,1233 12949,1213 12936,1192 12932,1175 12937,1158 12942,1141 12955,1129 12977,1120 13000,1111 13026,1107 13060,1109 13094,1110 13126,1115 13162,1126 Z"/>
      </g>
     </g>
     <g class="com.sun.star.drawing.ClosedBezierShape">
      <g id="id20">
       <rect class="BoundingBox" stroke="none" fill="none" x="15188" y="5608" width="505" height="327"/>
       <path fill="rgb(255,255,255)" stroke="none" d="M 15386,5656 C 15432,5635 15472,5622 15516,5614 15560,5606 15595,5606 15626,5614 15657,5622 15676,5635 15685,5656 15686,5657 15686,5657 15686,5657 15695,5678 15693,5701 15679,5729 15665,5758 15643,5784 15609,5813 15575,5842 15538,5865 15493,5886 15448,5907 15407,5920 15363,5928 15319,5936 15285,5936 15254,5928 15223,5920 15204,5907 15194,5886 15184,5865 15186,5842 15200,5813 15214,5784 15236,5758 15271,5729 15305,5700 15341,5677 15386,5656 Z"/>
      </g>
     </g>
     <g class="com.sun.star.drawing.ClosedBezierShape">
      <g id="id21">
       <rect class="BoundingBox" stroke="none" fill="none" x="10693" y="10252" width="770" height="360"/>
       <path fill="rgb(255,255,255)" stroke="none" d="M 11078,10252 L 11077,10252 C 11148,10252 11208,10260 11270,10276 11331,10293 11375,10313 11410,10342 11446,10370 11462,10398 11462,10431 11462,10465 11446,10493 11410,10521 11375,10550 11331,10570 11270,10587 11208,10603 11148,10611 11078,10611 11007,10611 10947,10603 10885,10587 10824,10570 10780,10550 10745,10521 10709,10493 10693,10465 10693,10431 10693,10398 10709,10370 10745,10342 10780,10313 10824,10293 10885,10276 10947,10260 11007,10252 11077,10252 L 11078,10252 Z"/>
      </g>
     </g>
    </g>
   </g>
  </g>
 </g>
</svg>